<svg id="Layer_1" data-name="Layer 1" xmlns="http://www.w3.org/2000/svg" xmlns:xlink="http://www.w3.org/1999/xlink" viewBox="0 0 350 100"><defs><style>.cls-1{fill:url(#linear-gradient);}.cls-2{fill:url(#linear-gradient-2);}</style><linearGradient id="linear-gradient" x1="18" y1="50" x2="332" y2="50" gradientUnits="userSpaceOnUse"><stop offset="0" stop-color="#f79832"/><stop offset="1" stop-color="#ef6052"/></linearGradient><linearGradient id="linear-gradient-2" x1="18" y1="50.05" x2="28.86" y2="50.05" xlink:href="#linear-gradient"/></defs><title>site_logo_datoms</title><path class="cls-1" d="M60.05,38.19a23.45,23.45,0,0,0-4.78-8.88,21.89,21.89,0,0,0-8.48-5.8,33.5,33.5,0,0,0-12.61-2.05q-6.21,0-12.41.4c-1.39.11-2.66.21-3.77.39V37H28.88V31.45a23.65,23.65,0,0,1,2.66-.22c1.18-.06,2.36-.09,3.54-.1a14.86,14.86,0,0,1,7.45,1.67,13.17,13.17,0,0,1,4.65,4.28A16.43,16.43,0,0,1,49.51,43a34.14,34.14,0,0,1,.66,6.54,36.87,36.87,0,0,1-.74,7.26A17.44,17.44,0,0,1,46.94,63a13,13,0,0,1-4.84,4.32A16,16,0,0,1,34.47,69c-.29,0-.66,0-1.23,0l-1.65-.09c-.59,0-1.12,0-1.62-.06a5.79,5.79,0,0,1-1.09-.13V63.1H18V77.84a27.86,27.86,0,0,0,3.1.28l4.31.24,4.37.22c1.48.07,2.53.07,3.38.07a32.51,32.51,0,0,0,13.43-2.47,24.05,24.05,0,0,0,8.77-6.5,24.57,24.57,0,0,0,4.75-9.29,41.06,41.06,0,0,0,1.44-10.86A40.24,40.24,0,0,0,60,38.19ZM96.27,21.86h-8l-20,55.91H79.15l4.21-12.3h17l4.45,12.3h11.41ZM86.13,56.75l4.06-12.3,1.65-8.81h.4l1.68,8.72L98,56.75Zm30.77-34.5v9.68h16.27V77.77H144V31.93h16.18V22.25Zm95.74,15.94a26,26,0,0,0-4.36-9.11,19.5,19.5,0,0,0-7.37-5.89,24.59,24.59,0,0,0-10.4-2.05q-11.34,0-17.45,7.5T167,50a45.25,45.25,0,0,0,1.44,11.82A26.23,26.23,0,0,0,172.71,71,19.22,19.22,0,0,0,180,76.84a24.88,24.88,0,0,0,10.47,2q11.27,0,17.42-7.51T214.08,50A45.25,45.25,0,0,0,212.64,38.19Zm-13.17,26.5A11.22,11.22,0,0,1,185,67.79a11.12,11.12,0,0,1-3.77-4,20,20,0,0,1-2.18-6.07,38.64,38.64,0,0,1-.7-7.74q0-9.9,3.16-14.54a11.17,11.17,0,0,1,14.59-3.19,11,11,0,0,1,3.73,4.1,21.38,21.38,0,0,1,2.1,6.11,40.37,40.37,0,0,1,.67,7.52Q202.63,60.18,199.47,64.69ZM271.9,22.25,257.83,47.5,255.45,54h-.3l-2.62-6.34L237.7,22.27h-9.92V77.8h10.31V48.9L236.5,38h.39l3.49,8.81,12.45,20.79h3.49l11.85-20.7,3.4-8.88h.48l-1.2,11V77.77h10.88V22.25Zm58.25,32a17.78,17.78,0,0,0-4.69-5,33.42,33.42,0,0,0-6.11-3.45q-3.27-1.44-6.11-2.77a21.06,21.06,0,0,1-4.68-2.94,5,5,0,0,1-1.86-4,4.8,4.8,0,0,1,2-4,9.55,9.55,0,0,1,5.82-1.52,29.85,29.85,0,0,1,7.53.91,19.13,19.13,0,0,1,5.23,2l3.43-9.11a22.5,22.5,0,0,0-7.07-2.4,48.1,48.1,0,0,0-9.12-.88,28,28,0,0,0-7.61,1A16.52,16.52,0,0,0,301.05,25a13.23,13.23,0,0,0-3.86,5,16.84,16.84,0,0,0-1.35,7,14.52,14.52,0,0,0,1.86,7.7,17.24,17.24,0,0,0,4.68,5,31,31,0,0,0,6.11,3.42c2.18.93,4.22,1.83,6.11,2.68a21.2,21.2,0,0,1,4.69,2.9,5.22,5.22,0,0,1,1.85,4.15,5.48,5.48,0,0,1-2.57,4.95q-2.58,1.64-7.42,1.61a24.53,24.53,0,0,1-4-.3q-1.86-.31-3.69-.81a29.47,29.47,0,0,1-3.14-1,19.76,19.76,0,0,1-2.24-1l-3.49,9.27a31.79,31.79,0,0,0,6.65,2.22,42.69,42.69,0,0,0,10.47,1.09,31.24,31.24,0,0,0,8.28-1,17.43,17.43,0,0,0,6.44-3.18,14.7,14.7,0,0,0,4.12-5.35A18.48,18.48,0,0,0,332,61.68a13.91,13.91,0,0,0-1.85-7.42Z"/><path class="cls-2" d="M18,48.53H28.86v3H18Zm0,7.28H28.86v3.06H18Zm0-14.57H28.86V44.3H18Z"/></svg>