<svg xmlns="http://www.w3.org/2000/svg" width="203.901" height="98.712" viewBox="0 0 203.901 98.712">
  <g id="Group_4512" data-name="Group 4512" transform="translate(28 -91)">
    <g id="Group_2" data-name="Group 2" transform="translate(-28 91)">
      <g id="Group_4513" data-name="Group 4513" transform="translate(0 0)">
        <path id="Path_3" data-name="Path 3" d="M3651.392-268.278c-2.494-2.845-4.764-5.429-7.033-8.014l.3-.41c.791.311,1.59.606,2.372.936,3.266,1.375,6.583,2.647,9.769,4.192a22.988,22.988,0,0,1,4.494,3.153,16.659,16.659,0,0,0,7.331,3.246,2.508,2.508,0,0,0,1.877-.6c1.972-1.735,2.538-6.946,1.01-9.048-1.125-1.547-2.5-2.7-5.147-1.084-.862-1.3-.014-4.3,1.636-4.956a6.615,6.615,0,0,0,3.713-3.056c.852-1.527,2.7-1.4,4.237-1.181,4.747.669,5.368.422,7.62-3.464.037-.066.192-.064.476-.149a8.005,8.005,0,0,1-1.916,6.7,14.814,14.814,0,0,1-1.67,1.752,6.277,6.277,0,0,0-2.061,5.752c.357,2.451.726,4.913,1.316,7.313.46,1.869,1.434,2.161,3.373,1.819,3.508-.619,6.234-2.5,8.8-4.838a12.641,12.641,0,0,1,3.6-1.954c3.589-1.528,7.212-2.974,10.82-4.452l.338.286c-2.181,2.526-4.364,5.053-6.828,7.906,1.4-.413,2.485-.664,3.519-1.049,4.464-1.664,9.084-3.032,13.3-5.184,2.381-1.213,4.221-3.626,6.057-5.715a22.161,22.161,0,0,0,2.676-4.528c.388-.753.791-1.041,1.622-.783,4.887,1.522,9.771,3.062,14.678,4.518,3.391,1.006,6.83,1.842,10.222,2.839s6.771,2.121,10.163,3.161c2.929.9,5.875,1.742,8.8,2.644a11.714,11.714,0,0,1,1.579.747l-.147.432-17.741-1.377-.146.4c1.591.969,3.18,1.944,4.772,2.907,5.68,3.427,11.365,6.841,17.029,10.291.363.223.57.709.988,1.255l-26.17-7.6-.3.82,20.132,8.724-.1.362-27.921-4.988-.19.52,14.812,6.623c-.667.252-.926.455-1.113.4-3.729-1.007-7.411-2.219-11.18-3.03-4.917-1.057-9.882-1.949-14.864-2.611-2.19-.291-4.48.148-6.725.294-.265.018-.519.283-.974.548,3.027.445,5.987-.432,8.677,1.037-16.56.523-30.811,6.332-42.566,18.076l-.362-.327c.738-.95,1.5-1.883,2.205-2.855.719-.99,1.386-2.019,2.274-3.323a29.912,29.912,0,0,0-9.034,4.783c-2.549,1.875-5,3.9-5.616,7.277a18.952,18.952,0,0,0-.518,3.8c.036,1.642-1.067,1.885-2.152,1.892a1.949,1.949,0,0,1-2.253-2.021,28.749,28.749,0,0,0-.993-5.5,5.724,5.724,0,0,0-1.459-2.42,30.851,30.851,0,0,0-12.284-7.495l4.119,5.941a61.465,61.465,0,0,0-42.807-17.582c.524-1.023,1-1.155,4.039-1.155a26.891,26.891,0,0,0,4.6-.27,4.179,4.179,0,0,0-1.155-.429c-4.412-.247-8.79-.413-13.163.748-3.931,1.043-7.989,1.586-11.963,2.487-2.42.549-4.78,1.36-7.172,2.041a1.04,1.04,0,0,1-.829-.134c4.392-2.938,9.618-4.211,14.123-6.887l-.134-.43-27.9,4.989-.167-.261a6.128,6.128,0,0,1,1.143-.842q9.192-3.936,18.4-7.833a.861.861,0,0,0,.418-.528c-9.079,1.605-17.737,4.743-26.521,7.4l-.261-.543q11.637-7.04,23.28-14.081l-.085-.461-17.774,1.359-.137-.364a5.433,5.433,0,0,1,1.226-.781c4.953-1.517,9.907-3.034,14.88-4.476,4.464-1.3,8.974-2.437,13.431-3.759,3.742-1.11,7.427-2.407,11.153-3.57,1.56-.486,3.208-.715,4.727-1.293,1.063-.4,1.3.1,1.663.837,1.661,3.394,3.65,6.668,6.79,8.782A45.323,45.323,0,0,0,3641-271.8C3644.29-270.487,3647.71-269.509,3651.392-268.278Z" transform="translate(-3573.305 288.711)" fill="#ff0606"/>
        <path id="Path_4" data-name="Path 4" d="M3752.8-139.8q-.753-10.981-1.494-21.929c-2.064,1.881-2.192,3.364-.6,7.262l-.285.38a28.717,28.717,0,0,1-3.989-3.12c-.384-.412.06-1.7.287-2.551,1.376-5.116,2.8-10.22,4.207-15.327.275-1,.708-1.74,1.97-1.691a2.011,2.011,0,0,1,2.1,1.77q2.043,7.672,4.214,15.31c.68,2.4.478,3.047-1.678,4.389-.665.414-1.339.809-2.409,1.453,1.046-2.807,2.205-5.339-.379-7.668-.506,7.268-1.008,14.487-1.51,21.706Z" transform="translate(-3650.878 238.515)" fill="#ff0606"/>
      </g>
      <ellipse id="Ellipse_2" data-name="Ellipse 2" cx="0.566" cy="0.97" rx="0.566" ry="0.97" transform="translate(55.805 23.335)" fill="#ff0606"/>
    </g>
  </g>
</svg>
